<svg xmlns="http://www.w3.org/2000/svg" viewBox="0 0 100 100">
  <defs>
    <linearGradient id="flameGradient" x1="0%" y1="100%" x2="100%" y2="0%">
      <stop offset="0%" style="stop-color:#ea580c"/>
      <stop offset="100%" style="stop-color:#f97316"/>
    </linearGradient>
  </defs>
  <rect width="100" height="100" rx="20" fill="url(#flameGradient)"/>
  <path d="M50 20C50 20 35 35 35 50C35 58 38 65 43 70C40 65 38 58 42 50C46 42 50 38 50 38C50 38 54 42 58 50C62 58 60 65 57 70C62 65 65 58 65 50C65 35 50 20 50 20Z" fill="white"/>
  <path d="M50 45C50 45 42 55 42 62C42 70 46 75 50 78C54 75 58 70 58 62C58 55 50 45 50 45Z" fill="rgba(255,255,255,0.6)"/>
</svg>
